<svg width="17" height="17" viewBox="0 0 17 17" fill="none" xmlns="http://www.w3.org/2000/svg">
<path fill-rule="evenodd" clip-rule="evenodd" d="M6.1812 16.0145C6.1812 15.8143 6.17414 15.2846 6.1701 14.5812C3.88437 15.0901 3.40211 13.4515 3.40211 13.4515C3.0283 12.478 2.48953 12.2189 2.48953 12.2189C1.74343 11.696 2.54603 11.7068 2.54603 11.7068C3.37083 11.7663 3.80467 12.5753 3.80467 12.5753C4.53765 13.8627 5.72769 13.4913 6.19633 13.2756C6.27099 12.731 6.48337 12.3596 6.71795 12.1491C4.8933 11.9365 2.97482 11.2134 2.97482 7.98473C2.97482 7.06507 3.29516 6.31299 3.82081 5.72385C3.73657 5.51074 3.45407 4.65418 3.90153 3.494C3.90153 3.494 4.59163 3.26744 6.16102 4.3578C6.81632 4.17107 7.51954 4.07693 8.21873 4.07383C8.9164 4.07693 9.61912 4.17107 10.2759 4.3578C11.8443 3.26744 12.5334 3.494 12.5334 3.494C12.9819 4.65366 12.6999 5.51022 12.6151 5.72385C13.1418 6.31299 13.4596 7.06507 13.4596 7.98473C13.4596 11.2217 11.5381 11.9339 9.7074 12.1424C10.003 12.4025 10.2653 12.9167 10.2653 13.7029C10.2653 14.8294 10.2547 15.7383 10.2547 16.0145C10.2547 16.24 10.4031 16.5017 10.8203 16.4195C14.0826 15.3032 16.4349 12.147 16.4349 8.42594C16.4349 3.77228 12.7554 0 8.21722 0C3.67956 0 0 3.77228 0 8.42594C0.000504464 12.148 2.35484 15.3063 5.62023 16.4205C6.03087 16.4976 6.1812 16.2374 6.1812 16.0145Z" fill="white"/>
</svg>
