<?xml version="1.0" encoding="iso-8859-1"?>
<!-- Uploaded to: SVG Repo, www.svgrepo.com, Generator: SVG Repo Mixer Tools -->
<svg fill="#000000" height="800px" width="800px" version="1.1" id="Capa_1" xmlns="http://www.w3.org/2000/svg" xmlns:xlink="http://www.w3.org/1999/xlink" 
	 viewBox="0 0 56 56" xml:space="preserve">
<path d="M28,0C12.561,0,0,12.561,0,28s12.561,28,28,28s28-12.561,28-28S43.439,0,28,0z M40,41H16c-1.104,0-2-0.896-2-2s0.896-2,2-2
	h24c1.104,0,2,0.896,2,2S41.104,41,40,41z M40,30H16c-1.104,0-2-0.896-2-2s0.896-2,2-2h24c1.104,0,2,0.896,2,2S41.104,30,40,30z
	 M40,19H16c-1.104,0-2-0.896-2-2s0.896-2,2-2h24c1.104,0,2,0.896,2,2S41.104,19,40,19z"/>
</svg>