<svg width="19" height="19" viewBox="0 0 19 19" fill="none" xmlns="http://www.w3.org/2000/svg">
<path fill-rule="evenodd" clip-rule="evenodd" d="M9.97744 18.3662C5.00094 18.3662 0.954883 14.3272 0.954883 9.35772C0.954883 4.38135 5.00094 0.342346 9.97744 0.342346C14.9539 0.342346 19 4.38135 19 9.35074C19 14.3202 14.9539 18.3662 9.97744 18.3662ZM17.5831 10.5842C17.3224 10.4996 15.2007 9.87235 12.7828 10.253C13.7909 13.0161 14.1996 15.2718 14.2773 15.7369C16.0113 14.5739 17.2448 12.7271 17.5831 10.5842ZM12.9873 16.4489C12.8745 15.7722 12.4233 13.4179 11.3448 10.6125C11.3308 10.6195 11.3097 10.6265 11.2956 10.6265C6.94642 12.1421 5.38862 15.1519 5.24772 15.4338C6.55169 16.4489 8.19407 17.0551 9.97744 17.0551C11.0418 17.0621 12.0638 16.8436 12.9873 16.4489ZM4.25383 14.5105C4.42998 14.2144 6.54464 10.7182 10.5202 9.42827C10.6189 9.39303 10.7246 9.36483 10.8233 9.33657C10.633 8.89961 10.4215 8.46258 10.196 8.0326C6.34734 9.18156 2.61137 9.13222 2.27302 9.1251C2.27302 9.20271 2.26604 9.28025 2.26604 9.35772C2.27302 11.3385 3.02027 13.143 4.25383 14.5105ZM2.43522 7.78589C2.78054 7.79294 5.95253 7.80703 9.56156 6.84839C8.28571 4.57872 6.90413 2.67545 6.70683 2.40062C4.54276 3.41566 2.93569 5.40337 2.43522 7.78589ZM8.17293 1.87893C8.38439 2.16096 9.78712 4.06415 11.0489 6.38316C13.7909 5.3541 14.9469 3.80327 15.0878 3.6059C13.7274 2.40062 11.937 1.66746 9.97744 1.66746C9.35714 1.66746 8.75094 1.74507 8.17293 1.87893ZM15.9407 4.49413C15.7787 4.71258 14.4887 6.36906 11.6409 7.53213C11.8172 7.89874 11.9934 8.27226 12.1555 8.64585C12.2119 8.77978 12.2683 8.91364 12.3247 9.04052C14.8905 8.71634 17.4351 9.23796 17.6888 9.2873C17.6677 7.47581 17.0192 5.80515 15.9407 4.49413Z" fill="black"/>
</svg>
