<svg width="19" height="19" viewBox="0 0 19 19" fill="none" xmlns="http://www.w3.org/2000/svg">
<path fill-rule="evenodd" clip-rule="evenodd" d="M9.97744 0.940552C14.6297 0.940552 18.3937 4.70458 18.3937 9.34979C18.3937 13.9949 14.6297 17.766 9.97744 17.766C5.32518 17.766 1.56116 14.002 1.56116 9.35677C1.56116 4.71163 5.32518 0.940552 9.97744 0.940552Z" fill="white"/>
<path fill-rule="evenodd" clip-rule="evenodd" d="M9.97744 18.3661C5.00094 18.3661 0.954883 14.3271 0.954883 9.35765C0.954883 4.38129 5.00094 0.342285 9.97744 0.342285C14.9539 0.342285 19 4.38129 19 9.35068C19 14.3201 14.9539 18.3661 9.97744 18.3661ZM17.5831 10.5842C17.3224 10.4996 15.2007 9.87229 12.7828 10.2529C13.7909 13.016 14.1996 15.2717 14.2773 15.7368C16.0113 14.5738 17.2448 12.7271 17.5831 10.5842ZM12.9873 16.4488C12.8745 15.7721 12.4233 13.4178 11.3448 10.6124C11.3308 10.6195 11.3097 10.6265 11.2956 10.6265C6.94642 12.142 5.38862 15.1518 5.24772 15.4338C6.55169 16.4488 8.19407 17.055 9.97744 17.055C11.0418 17.0621 12.0638 16.8436 12.9873 16.4488ZM4.25383 14.5105C4.42998 14.2143 6.54464 10.7182 10.5202 9.42821C10.6189 9.39297 10.7246 9.36477 10.8233 9.33651C10.633 8.89955 10.4215 8.46252 10.196 8.03254C6.34734 9.1815 2.61137 9.13216 2.27302 9.12504C2.27302 9.20265 2.26604 9.28019 2.26604 9.35765C2.27302 11.3385 3.02027 13.1429 4.25383 14.5105ZM2.43522 7.78583C2.78054 7.79287 5.95253 7.80697 9.56156 6.84833C8.28571 4.57866 6.90413 2.67539 6.70683 2.40056C4.54276 3.41559 2.93569 5.40331 2.43522 7.78583ZM8.17293 1.87887C8.38439 2.16089 9.78712 4.06409 11.0489 6.3831C13.7909 5.35403 14.9469 3.80321 15.0878 3.60584C13.7274 2.40056 11.937 1.6674 9.97744 1.6674C9.35714 1.6674 8.75094 1.74501 8.17293 1.87887ZM15.9407 4.49407C15.7787 4.71252 14.4887 6.369 11.6409 7.53207C11.8172 7.89868 11.9934 8.2722 12.1555 8.64579C12.2119 8.77972 12.2683 8.91358 12.3247 9.04045C14.8905 8.71628 17.4351 9.23789 17.6888 9.28724C17.6677 7.47575 17.0192 5.80509 15.9407 4.49407Z" fill="black"/>
</svg>
