<svg width="18" height="15" viewBox="0 0 18 15" fill="none" xmlns="http://www.w3.org/2000/svg">
<path d="M17.422 1.92609C16.7583 2.22102 16.0455 2.42008 15.2961 2.50861C16.0602 2.05072 16.6472 1.32553 16.9241 0.46162C16.2085 0.885116 15.4168 1.19414 14.5737 1.35936C13.8982 0.64038 12.9361 0.190943 11.8709 0.190943C9.82672 0.190943 8.17052 1.84771 8.17052 3.89188C8.17052 4.18173 8.20266 4.46482 8.26582 4.73549C5.18969 4.58098 2.46262 3.10748 0.636684 0.868199C0.318639 1.41519 0.135932 2.05072 0.135932 2.7291C0.135932 4.01369 0.789504 5.14602 1.78198 5.81031C1.17578 5.79057 0.605105 5.62478 0.106045 5.34734C0.105481 5.36256 0.105481 5.37891 0.105481 5.39358C0.105481 7.18737 1.38104 8.68343 3.07447 9.02346C2.76432 9.10749 2.43725 9.15316 2.09947 9.15316C1.86037 9.15316 1.62917 9.13004 1.4036 9.08719C1.8739 10.5567 3.24138 11.627 4.86037 11.6575C3.59439 12.65 1.99853 13.2426 0.264504 13.2426C-0.0343686 13.2426 -0.329293 13.2252 -0.618579 13.1908C1.01901 14.2396 2.9645 14.8526 5.05492 14.8526C11.8624 14.8526 15.5859 9.21293 15.5859 4.32158C15.5859 4.16143 15.5814 4.00128 15.5747 3.84226C16.2981 3.32064 16.9252 2.66933 17.422 1.92609Z" fill="white"/>
</svg>
